# xmcd
#
# Track frame offsets:
#       150
#       14640
#       31100
#       44007
#       57872
#       69977
#       83790
#       97475
#       110805
#       125577
#       140152
#       152707
#       167887
#       180559
#       193575
#       206420
#       220765
#       234300
#
# Disc length: 3306 seconds
#
# Revision: 3
# Processed by: cddbd v1.5.2PL0 Copyright (c) Steve Scherf et al.
# Submitted via: FreeDbEdit v0.1
#
DISCID=0a0ce812
DTITLE=Cab Calloway - Minnie the Moocher
DYEAR=1900
DGENRE=
TTITLE0=Minnie the Moocher
TTITLE1=I've Got You Under My Skin
TTITLE2=The Jumpin Jive
TTITLE3=St James Infirmary
TTITLE4=Chattanooga Choo Choo
TTITLE5=Take the "A" Train
TTITLE6=Hi De Ho Man
TTITLE7=Honey Dripper
TTITLE8=Jungle King
TTITLE9=Two Blocks Down, Turn to the Left
TTITLE10=Everybody Eats When They Come to My House
TTITLE11=San Fransico Fan
TTITLE12=Hoy Hoy
TTITLE13=A Chicken Ain't Nothing but a Bird
TTITLE14=Make Yourself at Home
TTITLE15=Run Little Rabbit
TTITLE16=Lonesome Nights
TTITLE17=The Calloway Boogie
EXTD=
EXTT0=
EXTT1=
EXTT2=
EXTT3=
EXTT4=
EXTT5=
EXTT6=
EXTT7=
EXTT8=
EXTT9=
EXTT10=
EXTT11=
EXTT12=
EXTT13=
EXTT14=
EXTT15=
EXTT16=
EXTT17=
PLAYORDER=
